<?xml version="1.0" encoding="utf-8" standalone="no"?><!DOCTYPE svg PUBLIC "-//W3C//DTD SVG 20010904//EN" "http://www.w3.org/TR/2001/REC-SVG-20010904/DTD/svg10.dtd"><svg xmlns="http://www.w3.org/2000/svg" width="953" height="644" xmlns:xlink="http://www.w3.org/1999/xlink"><source><![CDATA[Introductions->Player: Game introduction plays
Player->Banshee: PLAYER meets CHAOINTE
Player->Player: Reflection in Interaction next morning
Player->Introductions: PLAYER goes to gym
Introductions->Player: PUCA introduction plays
Player->Pooka: PLAYER meets PUCA
Player->Player: Reflection in Interaction next morning
Player->Introductions: PLAYER goes to gym
Introductions->Player: CROM introduction plays
Player->Dullahan: PLAYER meets CROM
Player->Player: Reflection in Interaction next morning]]></source><desc></desc><defs><marker viewBox="0 0 5 5" markerWidth="5" markerHeight="5" orient="auto" refX="5" refY="2.5" id="markerArrowBlock"><path d="M 0 0 L 5 2.5 L 0 5 z"></path></marker><marker viewBox="0 0 9.6 16" markerWidth="4" markerHeight="16" orient="auto" refX="9.6" refY="8" id="markerArrowOpen"><path d="M 9.6,8 1.92,16 0,13.7 5.76,8 0,2.286 1.92,0 9.6,8 z"></path></marker></defs><g class="title"></g><g class="actor"><path d="M10,20C88.3,14.8 66.2,25.2 140.9,20.0C142.8,55.8 139.0,31.3 140.9,67.1C54.3,72.3 99.7,61.8 10.0,67.1C8.1,47.5 11.9,41.5 10.0,20.0" style="stroke-width: 2px;" stroke="#000000" fill="#ffffff"></path><text x="20" y="48.80833435058594" style="font-size: 16px; font-family: danielbd;"><tspan x="20">Introductions</tspan></text></g><g class="actor"><path d="M10,577.8499984741211C41.4,583.1 84.4,572.6 140.9,577.8C142.8,613.6 139.0,592.5 140.9,624.9C79.5,630.2 108.6,619.7 10.0,624.9C11.9,603.5 8.1,589.1 10.0,577.8" style="stroke-width: 2px;" stroke="#000000" fill="#ffffff"></path><text x="20" y="606.658332824707" style="font-size: 16px; font-family: danielbd;"><tspan x="20">Introductions</tspan></text></g><path d="M75.4,67.1C95.9,384.9 55.0,325.1 75.4,577.8" style="stroke-width: 2px;" stroke="#000000" fill="none"></path><g class="actor"><path d="M281.799991607666,20C299.5,17.1 323.5,22.9 355.5,20.0C357.4,51.8 353.6,31.3 355.5,67.1C293.6,70.0 319.5,64.1 281.8,67.1C279.9,32.5 283.7,45.4 281.8,20.0" style="stroke-width: 2px;" stroke="#000000" fill="#ffffff"></path><text x="291.799991607666" y="43.86666679382324" style="font-size: 16px; font-family: danielbd;"><tspan x="291.799991607666">Player</tspan></text></g><g class="actor"><path d="M281.799991607666,577.8499984741211C293.6,580.8 321.2,574.9 355.5,577.8C357.4,600.2 353.6,608.3 355.5,624.9C316.4,627.9 343.7,622.0 281.8,624.9C279.9,589.1 283.7,596.4 281.8,577.8" style="stroke-width: 2px;" stroke="#000000" fill="#ffffff"></path><text x="291.799991607666" y="601.7166652679443" style="font-size: 16px; font-family: danielbd;"><tspan x="291.799991607666">Player</tspan></text></g><path d="M318.7,67.1C339.1,340.3 298.2,496.1 318.7,577.8" style="stroke-width: 2px;" stroke="#000000" fill="none"></path><g class="actor"><path d="M629.833324432373,20C704.9,16.4 697.8,23.6 719.2,20.0C721.1,55.8 717.4,34.1 719.2,67.1C659.5,70.7 687.9,63.5 629.8,67.1C627.9,45.9 631.7,40.9 629.8,20.0" style="stroke-width: 2px;" stroke="#000000" fill="#ffffff"></path><text x="639.833324432373" y="49.30000019073486" style="font-size: 16px; font-family: danielbd;"><tspan x="639.833324432373">Banshee</tspan></text></g><g class="actor"><path d="M629.833324432373,577.8499984741211C684.9,581.4 649.2,574.3 719.2,577.8C721.1,615.7 717.4,586.8 719.2,624.9C682.9,621.4 667.4,628.5 629.8,624.9C631.7,607.2 627.9,589.0 629.8,577.8" style="stroke-width: 2px;" stroke="#000000" fill="#ffffff"></path><text x="639.833324432373" y="607.149998664856" style="font-size: 16px; font-family: danielbd;"><tspan x="639.833324432373">Banshee</tspan></text></g><path d="M674.5,67.1C695.0,189.7 654.1,414.7 674.5,577.8" style="stroke-width: 2px;" stroke="#000000" fill="none"></path><g class="actor"><path d="M739.2499885559082,20C792.3,17.2 756.0,22.8 809.1,20.0C807.2,50.2 811.0,34.8 809.1,67.1C794.2,64.3 750.4,69.9 739.2,67.1C741.1,38.6 737.4,55.8 739.2,20.0" style="stroke-width: 2px;" stroke="#000000" fill="#ffffff"></path><text x="749.2499885559082" y="48.541666984558105" style="font-size: 16px; font-family: danielbd;"><tspan x="749.2499885559082">Pooka</tspan></text></g><g class="actor"><path d="M739.2499885559082,577.8499984741211C792.3,575.1 776.4,580.6 809.1,577.8C811.0,613.6 807.2,589.1 809.1,624.9C792.3,627.7 756.0,622.1 739.2,624.9C741.1,589.1 737.4,596.0 739.2,577.8" style="stroke-width: 2px;" stroke="#000000" fill="#ffffff"></path><text x="749.2499885559082" y="606.3916654586792" style="font-size: 16px; font-family: danielbd;"><tspan x="749.2499885559082">Pooka</tspan></text></g><path d="M774.2,67.1C753.7,271.0 794.6,438.8 774.2,577.8" style="stroke-width: 2px;" stroke="#000000" fill="none"></path><g class="actor"><path d="M829.0999870300293,20C893.7,23.8 899.3,16.2 923.3,20.0C925.1,45.9 921.4,34.2 923.3,67.1C870.2,63.3 888.4,70.9 829.1,67.1C827.2,55.8 831.0,31.3 829.1,20.0" style="stroke-width: 2px;" stroke="#000000" fill="#ffffff"></path><text x="839.0999870300293" y="49.30000019073486" style="font-size: 16px; font-family: danielbd;"><tspan x="839.0999870300293">Dullahan</tspan></text></g><g class="actor"><path d="M829.0999870300293,577.8499984741211C844.2,574.1 904.5,581.6 923.3,577.8C925.1,596.9 921.4,616.4 923.3,624.9C881.1,621.2 883.7,628.7 829.1,624.9C831.0,598.1 827.2,594.0 829.1,577.8" style="stroke-width: 2px;" stroke="#000000" fill="#ffffff"></path><text x="839.0999870300293" y="607.149998664856" style="font-size: 16px; font-family: danielbd;"><tspan x="839.0999870300293">Dullahan</tspan></text></g><path d="M876.2,67.1C896.6,189.4 855.8,189.7 876.2,577.8" style="stroke-width: 2px;" stroke="#000000" fill="none"></path><g class="signal"><text x="91.23332977294922" y="92.40833377838135" style="font-size: 16px; font-family: danielbd;"><tspan x="91.23332977294922">Game introduction plays</tspan></text><path d="M75.4,114.2C167.9,123.9 260.3,104.4 318.7,114.2" style="stroke-width: 2px; marker-end: url(&quot;#markerArrowBlock&quot;);" stroke="#000000" fill="none"></path></g><g class="signal"><text x="373.1083221435547" y="144.8833351135254" style="font-size: 16px; font-family: danielbd;"><tspan x="373.1083221435547">PLAYER meets CHAOINTE</tspan></text><path d="M318.7,151.6C589.1,165.8 406.1,137.4 674.5,151.6" style="stroke-width: 2px; marker-end: url(&quot;#markerArrowBlock&quot;);" stroke="#000000" fill="none"></path></g><g class="signal"><text x="343.6583251953125" y="190.14166736602783" style="font-size: 16px; font-family: danielbd;"><tspan x="343.6583251953125">Reflection in Interaction next morning</tspan></text><path d="M318.7,171.6C333.9,172.4 330.6,170.8 338.7,171.6" style="stroke-width: 2px;" stroke="#000000" fill="none"></path><path d="M338.7,171.6C339.9,196.0 337.4,181.6 338.7,203.7" style="stroke-width: 2px;" stroke="#000000" fill="none"></path><path d="M338.7,203.7C323.5,204.5 321.9,202.9 318.7,203.7" style="stroke-width: 2px; marker-end: url(&quot;#markerArrowBlock&quot;);" stroke="#000000" fill="none"></path></g><g class="signal"><text x="103.24999237060547" y="224.29166793823242" style="font-size: 16px; font-family: danielbd;"><tspan x="103.24999237060547">PLAYER goes to gym</tspan></text><path d="M318.7,246.3C177.9,236.6 140.2,256.1 75.4,246.3" style="stroke-width: 2px; marker-end: url(&quot;#markerArrowBlock&quot;);" stroke="#000000" fill="none"></path></g><g class="signal"><text x="87.86666107177734" y="271.9416675567627" style="font-size: 16px; font-family: danielbd;"><tspan x="87.86666107177734">PUCA introduction plays</tspan></text><path d="M75.4,294.0C226.2,303.7 279.7,284.3 318.7,294.0" style="stroke-width: 2px; marker-end: url(&quot;#markerArrowBlock&quot;);" stroke="#000000" fill="none"></path></g><g class="signal"><text x="446.72499084472656" y="324.70000076293945" style="font-size: 16px; font-family: danielbd;"><tspan x="446.72499084472656">PLAYER meets PUCA</tspan></text><path d="M318.7,331.4C428.0,349.6 657.4,313.2 774.2,331.4" style="stroke-width: 2px; marker-end: url(&quot;#markerArrowBlock&quot;);" stroke="#000000" fill="none"></path></g><g class="signal"><text x="343.6583251953125" y="369.9583330154419" style="font-size: 16px; font-family: danielbd;"><tspan x="343.6583251953125">Reflection in Interaction next morning</tspan></text><path d="M318.7,351.4C334.3,352.2 321.9,350.6 338.7,351.4" style="stroke-width: 2px;" stroke="#000000" fill="none"></path><path d="M338.7,351.4C337.4,375.7 339.9,378.4 338.7,383.5" style="stroke-width: 2px;" stroke="#000000" fill="none"></path><path d="M338.7,383.5C323.5,384.3 321.9,382.7 318.7,383.5" style="stroke-width: 2px; marker-end: url(&quot;#markerArrowBlock&quot;);" stroke="#000000" fill="none"></path></g><g class="signal"><text x="103.24999237060547" y="404.1083335876465" style="font-size: 16px; font-family: danielbd;"><tspan x="103.24999237060547">PLAYER goes to gym</tspan></text><path d="M318.7,426.1C133.8,435.9 260.3,416.4 75.4,426.1" style="stroke-width: 2px; marker-end: url(&quot;#markerArrowBlock&quot;);" stroke="#000000" fill="none"></path></g><g class="signal"><text x="85.44166564941406" y="451.5249996185303" style="font-size: 16px; font-family: danielbd;"><tspan x="85.44166564941406">CROM introduction plays</tspan></text><path d="M75.4,473.3C114.4,483.1 133.8,463.6 318.7,473.3" style="stroke-width: 2px; marker-end: url(&quot;#markerArrowBlock&quot;);" stroke="#000000" fill="none"></path></g><g class="signal"><text x="494.0791549682617" y="504.04999923706055" style="font-size: 16px; font-family: danielbd;"><tspan x="494.0791549682617">PLAYER meets CROM</tspan></text><path d="M318.7,510.8C735.0,533.1 452.5,488.5 876.2,510.8" style="stroke-width: 2px; marker-end: url(&quot;#markerArrowBlock&quot;);" stroke="#000000" fill="none"></path></g><g class="signal"><text x="343.6583251953125" y="549.308331489563" style="font-size: 16px; font-family: danielbd;"><tspan x="343.6583251953125">Reflection in Interaction next morning</tspan></text><path d="M318.7,530.8C328.7,531.6 323.5,530.0 338.7,530.8" style="stroke-width: 2px;" stroke="#000000" fill="none"></path><path d="M338.7,530.8C339.9,552.2 337.4,552.0 338.7,562.8" style="stroke-width: 2px;" stroke="#000000" fill="none"></path><path d="M338.7,562.8C321.9,563.6 335.4,562.0 318.7,562.8" style="stroke-width: 2px; marker-end: url(&quot;#markerArrowBlock&quot;);" stroke="#000000" fill="none"></path></g></svg>